:SAMPLES-PER-SECOND 30
:FRAME-RANGE 1-3535
:FULLY-SPECIFIED
:DEGREES
1216
root  48.6004 37.5328 -24.3691 -0.749223 10.9374 -4.50836
RightUpLeg  -23.5092 -4.27454 13.2637
RightLeg  31.3785 -12.3909 -8.28379
RightFoot  -9.14079 0.0334808 -4.95236
RightToes  1.22775e-009 1.2921e-014 -6.02303e-014
Spine  7.08362 -4.70928 6.46681
Spine1  -2.58036 -5.12079 7.55092
HEad  -9.94287 -44.6554 5.17975
LeftShoulder1  1.65821 -0.788005 -32.5922
LeftArm  12.2454 0.410708 -38.2505
LeftForeArm  12.8735 -2.89986 -17.6792
LeftHand  0.378972 -3.53478 -4.68404
RightShoulder  5.09107 5.4437 49.8695
RightArm  5.06371 -0.376106 12.4585
RightForeArm  20.1474 -4.77496 16.9819
RightHand  0.368798 5.25824 3.70181
LeftUpLeg  3.91374 19.0038 10.3895
LeftLeg  50.036 -1.1677 -1.05559
LeftFoot  7.93685 3.16164 -18.7574
LeftToes  2.52163e-011 5.65494e-011 -1.09494e-012
1217
root  48.9305 37.4902 -23.328 -0.798115 10.0404 -5.22498
RightUpLeg  -22.2699 -3.83917 13.7615
RightLeg  32.7903 -11.9118 -8.40976
RightFoot  -11.3598 -0.0773927 -4.02103
RightToes  1.22775e-009 1.2921e-014 -6.02303e-014
Spine  7.56056 -4.73925 7.73608
Spine1  -2.18498 -4.81817 7.82918
HEad  -10.8748 -45.669 7.01655
LeftShoulder1  1.59649 -0.673515 -32.1727
LeftArm  10.6426 2.13929 -37.2756
LeftForeArm  13.5115 -2.66508 -17.6037
LeftHand  0.406877 -3.56764 -5.02581
RightShoulder  5.37924 5.87561 50.2585
RightArm  6.02591 -0.104834 12.3892
RightForeArm  19.0689 -1.93763 16.9298
RightHand  0.384474 5.31748 3.8472
LeftUpLeg  -1.76362 18.5765 11.4854
LeftLeg  58.3378 -1.07637 -1.35932
LeftFoot  10.9371 2.89721 -14.9848
LeftToes  2.52163e-011 5.65494e-011 -1.09494e-012
1218
root  49.3052 37.6927 -22.2098 -0.790423 8.38797 -4.7872
RightUpLeg  -19.7712 -2.90432 12.9123
RightLeg  32.45 -11.2759 -7.89204
RightFoot  -12.8049 -0.126415 -3.12085
RightToes  1.22775e-009 1.2921e-014 -6.02303e-014
Spine  7.62604 -4.48571 7.99119
Spine1  -1.6695 -4.35396 7.20505
HEad  -11.4333 -46.2846 8.2009
LeftShoulder1  1.54598 -0.578743 -31.8209
LeftArm  10.0676 4.06386 -35.824
LeftForeArm  12.3627 -3.56888 -17.3368
LeftHand  0.421962 -3.55166 -5.23168
RightShoulder  5.75308 6.46734 50.5536
RightArm  8.93616 0.508893 12.9586
RightForeArm  17.8203 1.24705 16.6998
RightHand  0.366652 5.3811 3.62906
LeftUpLeg  -6.64178 19.0442 11.5667
LeftLeg  63.6015 -0.435469 -0.333333
LeftFoot  6.85135 2.25813 -14.3045
LeftToes  2.52163e-011 5.65494e-011 -1.09494e-012
1219
root  49.7184 37.9809 -21.0762 -0.758433 6.26358 -4.06967
RightUpLeg  -16.8342 -2.34721 11.6458
RightLeg  31.1757 -10.0093 -6.73567
RightFoot  -13.7826 -0.145664 -2.46318
RightToes  1.22775e-009 1.2921e-014 -6.02303e-014
Spine  7.48759 -4.10887 8.32126
Spine1  -1.32563 -3.7587 6.0839
HEad  -11.0254 -46.7063 8.31426
LeftShoulder1  1.51251 -0.508128 -31.6518
LeftArm  10.6989 6.09437 -34.1958
LeftForeArm  10.5233 -5.10495 -16.9172
LeftHand  0.418649 -3.47735 -5.23785
RightShoulder  5.95856 6.85977 50.3766
RightArm  12.8897 1.02297 14.3067
RightForeArm  15.7178 4.81129 16.0169
RightHand  0.349388 5.64761 3.34462
LeftUpLeg  -10.7629 19.3157 10.9311
LeftLeg  65.0765 -0.168087 0.263376
LeftFoot  5.67079 1.80485 -12.2623
LeftToes  2.52163e-011 5.65494e-011 -1.09494e-012
1220
root  50.1577 38.3402 -19.9037 -0.709022 3.85147 -3.01019
RightUpLeg  -13.5056 -2.34047 9.77635
RightLeg  29.0345 -8.11439 -5.06657
RightFoot  -14.3961 -0.151315 -2.02428
RightToes  1.22775e-009 1.2921e-014 -6.02303e-014
Spine  7.33921 -3.61088 8.19245
Spine1  -1.46403 -3.14167 4.91193
HEad  -9.7352 -47.0417 7.32388
LeftShoulder1  1.45876 -0.37941 -31.5152
LeftArm  11.7736 8.18679 -32.8075
LeftForeArm  9.23535 -6.59608 -16.4246
LeftHand  0.395683 -3.45739 -4.95007
RightShoulder  6.00503 7.00406 50.0748
RightArm  21.8673 0.675159 15.7189
RightForeArm  7.60114 11.1518 13.8133
RightHand  0.390589 5.67551 3.76553
LeftUpLeg  -14.0096 19.1879 9.71389
LeftLeg  63.2235 -0.439153 -0.335447
LeftFoot  3.6233 1.36751 -10.5579
LeftToes  2.52163e-011 5.65494e-011 -1.09494e-012
1221
root  50.5915 38.6807 -18.7463 -0.568915 1.44461 -1.97601
RightUpLeg  -10.2897 -2.06048 7.78004
RightLeg  26.5389 -6.27191 -3.47244
RightFoot  -14.721 -0.1465 -1.59153
RightToes  1.22775e-009 1.2921e-014 -6.02303e-014
Spine  7.08753 -3.0601 7.6914
Spine1  -1.7657 -2.63395 4.1966
HEad  -8.45296 -47.1856 6.11313
LeftShoulder1  1.39388 -0.217772 -31.4005
LeftArm  12.6984 10.0871 -31.7842
LeftForeArm  8.21441 -7.81338 -15.9554
LeftHand  0.409367 -3.60689 -5.03303
RightShoulder  6.02508 7.09729 49.8019
RightArm  30.6261 0.523824 16.8334
RightForeArm  -0.322575 16.2918 10.6029
RightHand  0.42747 5.88417 4.06228
LeftUpLeg  -16.5788 18.9242 8.72237
LeftLeg  58.6286 -1.25419 -1.69702
LeftFoot  1.07276 1.14503 -10.5666
LeftToes  2.52163e-011 5.65494e-011 -1.09494e-012
1222
root  50.9997 39.0096 -17.6152 -0.430083 -0.757874 -0.920288
RightUpLeg  -7.09189 -1.62125 5.74439
RightLeg  23.733 -4.27083 -2.2591
RightFoot  -14.8083 -0.124841 -0.815389
RightToes  1.22775e-009 1.2921e-014 -6.02303e-014
Spine  6.79362 -2.57799 6.67981
Spine1  -2.0314 -2.33611 3.80543
HEad  -7.64592 -47.0199 5.36107
LeftShoulder1  1.33623 -0.0815858 -31.2123
LeftArm  13.5749 11.7092 -31.1643
LeftForeArm  6.95003 -8.75045 -15.5847
LeftHand  0.423119 -3.58632 -5.2238
RightShoulder  6.03599 7.14908 49.6501
RightArm  37.603 0.163467 17.4609
RightForeArm  -6.5254 20.9468 6.72004
RightHand  0.472571 6.04375 4.45274
LeftUpLeg  -18.1585 18.411 7.8364
LeftLeg  51.1563 -2.04546 -2.28614
LeftFoot  -0.243158 1.04202 -10.6885
LeftToes  2.52163e-011 5.65494e-011 -1.09494e-012
1223
root  51.3899 39.2946 -16.5272 -0.292226 -2.75595 0.0311584
RightUpLeg  -3.93982 -1.77231 3.87006
RightLeg  20.4853 -2.12115 -1.47862
RightFoot  -14.7542 -0.110399 -0.355212
RightToes  1.22775e-009 1.2921e-014 -6.02303e-014
Spine  6.52407 -2.23444 5.53504
Spine1  -2.26087 -2.19706 3.35714
HEad  -7.33191 -46.5018 4.90437
LeftShoulder1  1.30462 -0.00690736 -31.1028
LeftArm  14.7706 12.9178 -30.6564
LeftForeArm  5.84049 -9.32646 -15.3985
LeftHand  0.45366 -3.65402 -5.57121
RightShoulder  5.99912 7.11368 49.5122
RightArm  37.2561 -0.0956555 17.596
RightForeArm  -5.32347 24.5402 5.52136
RightHand  0.473522 5.8508 4.55019
LeftUpLeg  -18.5533 17.8295 7.25693
LeftLeg  40.9084 -2.75991 -2.18963
LeftFoot  -0.646345 1.02005 -10.8331
LeftToes  2.52163e-011 5.65494e-011 -1.09494e-012
